<svg id="visual" viewBox="0 0 1980 200" width="1980" height="200" xmlns="http://www.w3.org/2000/svg" xmlns:xlink="http://www.w3.org/1999/xlink" version="1.1"><path d="M0 124L18.3 121.2C36.7 118.3 73.3 112.7 110 107.7C146.7 102.7 183.3 98.3 220 99.8C256.7 101.3 293.3 108.7 330 104.8C366.7 101 403.3 86 440 83.7C476.7 81.3 513.3 91.7 550 93C586.7 94.3 623.3 86.7 660 87.8C696.7 89 733.3 99 770 100C806.7 101 843.3 93 880 95.5C916.7 98 953.3 111 990 113.7C1026.7 116.3 1063.3 108.7 1100 106.8C1136.7 105 1173.3 109 1210 107.5C1246.7 106 1283.3 99 1320 100.8C1356.7 102.7 1393.3 113.3 1430 112.8C1466.7 112.3 1503.3 100.7 1540 101.3C1576.7 102 1613.3 115 1650 112.5C1686.7 110 1723.3 92 1760 90C1796.7 88 1833.3 102 1870 105.8C1906.7 109.7 1943.3 103.3 1961.7 100.2L1980 97L1980 0L1961.7 0C1943.3 0 1906.7 0 1870 0C1833.3 0 1796.7 0 1760 0C1723.3 0 1686.7 0 1650 0C1613.3 0 1576.7 0 1540 0C1503.3 0 1466.7 0 1430 0C1393.3 0 1356.7 0 1320 0C1283.3 0 1246.7 0 1210 0C1173.3 0 1136.7 0 1100 0C1063.3 0 1026.7 0 990 0C953.3 0 916.7 0 880 0C843.3 0 806.7 0 770 0C733.3 0 696.7 0 660 0C623.3 0 586.7 0 550 0C513.3 0 476.7 0 440 0C403.3 0 366.7 0 330 0C293.3 0 256.7 0 220 0C183.3 0 146.7 0 110 0C73.3 0 36.7 0 18.3 0L0 0Z" fill="#0066FF" stroke-linecap="round" stroke-linejoin="miter"></path></svg>